<svg xmlns="http://www.w3.org/2000/svg" xmlns:xlink="http://www.w3.org/1999/xlink" width="110" height="27.426" viewBox="0 0 110 27.426">
      <title>Wildfire</title>
      <defs>
        <clipPath id="clip-path_184">
          <rect width="110" height="27.426" fill="none"></rect>
        </clipPath>
      </defs>
      <g data-name="Wildfire Logo White" clip-path="url(#clip-path_184)">
        <path id="Path_1_184" data-name="Path 1" d="M144.23,27.6h4.117V.76l-4.117.554Z" transform="translate(-105.989 -0.558)"></path>
        <path id="Path_2_184" data-name="Path 2" d="M181.289,10.192a12.056,12.056,0,0,0-2.967-.345c-5.969,0-9.491,3.8-9.491,9.432,0,5.7,3.246,8.705,7.294,8.705A6.981,6.981,0,0,0,181.5,25.6l.175,2.018,3.7-.013V.76l-4.083.554v8.877Zm0,12.645a5.566,5.566,0,0,1-4.014,1.8c-2.2,0-4.258-1.8-4.258-5.873,0-3.7,2.024-5.77,5.27-5.77a9.8,9.8,0,0,1,3,.517Z" transform="translate(-124.078 -0.558)"></path>
        <path id="Path_3_184" data-name="Path 3" d="M288.35,53.158h4.083V35.49l-4.083.555Z" transform="translate(-211.898 -26.112)"></path>
        <path id="Path_4_184" data-name="Path 4" d="M250.527.24c-3.525,0-5.725.933-7.154,2.728-1.432,1.726-1.676,4.075-1.676,6.565v.658l-2.757.31v2.8H241.7V27.222h4.083V13.3h4.362l.175-3.11H245.78V9.324c0-1.9.069-3.455.978-4.492.768-.9,1.955-1.347,3.8-1.347a19.869,19.869,0,0,1,3.575.347l.43-3.147A16.7,16.7,0,0,0,250.527.24Z" transform="translate(-175.603 -0.176)"></path>
        <path id="Path_5_184" data-name="Path 5" d="M326.41,35.03a4.675,4.675,0,0,0-4.606,2.84l-.069-2.7L318,35.689V52.82h4.117V40.707a4.689,4.689,0,0,1,3.945-2.077,7.913,7.913,0,0,1,1.793.207l.483-3.549A8.963,8.963,0,0,0,326.41,35.03Z" transform="translate(-233.727 -25.775)"></path>
        <path id="Path_6_184" data-name="Path 6" d="M366.466,49.853c-3.7,0-6-1.9-6.038-5.435h11.237c.8-6.057-2.093-9.518-6.806-9.518-5.13,0-8.479,3.6-8.479,8.931,0,5.294,2.967,9.276,9.529,9.242a12.43,12.43,0,0,0,5.581-1.166l.422-3.127A15.573,15.573,0,0,1,366.466,49.853Zm-2.13-12.116c2.165,0,3.594,1.522,3.525,4.048l-7.4.035C360.6,39.087,362.415,37.737,364.336,37.737Z" transform="translate(-261.912 -25.679)"></path>
        <path id="Path_7_184" data-name="Path 7" d="M21.291,47.029c-.454,1.535-.768,2.651-.768,2.72l-.731-2.789-3.27-10.74h-4.2L8.848,47.066c-.489,1.36-.8,2.579-.837,2.72-.035-.141-.313-1.395-.661-2.72L4.287,36.22H0L5.342,53.694h4.792l4.115-12.451L18.1,53.694h4.726l5.61-17.118-3.87-.356Z" transform="translate(0 -26.648)"></path>
        <path id="Path_8_184" data-name="Path 8" d="M114.35,55.236h4.112V38.705l-4.112-.385Z" transform="translate(-84.032 -28.191)"></path>
        <path id="Path_9_184" data-name="Path 9" d="M87.37,0l-.553,5.751L77.31,7.321l13.981,1.3,1.8-5.217L90.148,6.083Z" transform="translate(-56.817)"></path>
      </g>
    </svg>